<?xml version="1.0" encoding="UTF-8"?><svg id="Layer_2" xmlns="http://www.w3.org/2000/svg" xmlns:xlink="http://www.w3.org/1999/xlink" viewBox="0 0 633.25 104.58"><defs><style>.cls-1{clip-path:url(#clippath);}.cls-2{fill:none;}.cls-2,.cls-3{stroke-width:0px;}.cls-3{fill:#000;}</style><clipPath id="clippath"><rect class="cls-2" x="0" width="633.25" height="104.58"/></clipPath></defs><g id="Layer_1-2"><g class="cls-1"><path class="cls-3" d="M52.29,26.15V0C23.41,0,0,23.41,0,52.29c0,9.53,2.56,18.45,7.01,26.15h45.28c-14.44,0-26.14-11.71-26.14-26.15s11.71-26.15,26.14-26.15M104.58,52.29c0-9.53-2.56-18.45-7.01-26.15h-45.28c14.44,0,26.15,11.71,26.15,26.15s-11.71,26.15-26.15,26.15v26.15c28.88,0,52.29-23.41,52.29-52.29"/><path class="cls-3" d="M592.7,26.24h-8.91l20.48,52.64-2.66,6.25c-.75,1.84-1.38,3.16-1.89,3.94-.51.79-1.18,1.35-2,1.69-.82.34-2.05.51-3.69.51h-7.48v7.68h10.04c2.39,0,4.3-.38,5.73-1.13,1.43-.75,2.63-1.91,3.58-3.48.96-1.57,2.05-3.93,3.28-7.07l24.07-61.04h-8.91l-15.57,42.6-16.08-42.6ZM572.28,78.47h8.4V6.78h-8.4v71.69ZM552.45,66.23c-3.17,3.58-7.36,5.38-12.55,5.38-3.34,0-6.33-.82-8.96-2.46-2.63-1.64-4.66-3.94-6.09-6.91-1.43-2.97-2.15-6.33-2.15-10.09s.72-6.98,2.15-9.88c1.43-2.9,3.46-5.16,6.09-6.76,2.63-1.61,5.62-2.41,8.96-2.41,5.19,0,9.37,1.79,12.55,5.38,3.17,3.58,4.76,8.21,4.76,13.88s-1.59,10.29-4.76,13.88M553.68,28.8c-3.79-2.12-8.11-3.18-12.96-3.18-7.58,0-13.55,3-17.92,9.01l-1.13-8.4h-7.27v72.71h8.4v-28.47c1.71,2.66,4.06,4.76,7.07,6.3,3,1.54,6.62,2.31,10.86,2.31,4.78,0,9.08-1.13,12.9-3.38,3.82-2.25,6.81-5.39,8.96-9.42s3.23-8.67,3.23-13.93c0-5.53-1.08-10.31-3.23-14.34-2.15-4.03-5.12-7.1-8.91-9.22M500.66,31.15c-3.65-3.69-8.42-5.53-14.29-5.53-8.33,0-14.37,3.31-18.13,9.93-1.43-3.28-3.6-5.75-6.5-7.42-2.9-1.67-6.23-2.51-9.98-2.51-6.42,0-11.5,2.6-15.26,7.78l-1.13-7.17h-7.27v52.23h8.4v-27.55c0-5.26,1.25-9.51,3.74-12.75,2.49-3.24,5.85-4.86,10.09-4.86s7.13,1.33,9.32,3.99c2.18,2.66,3.28,6.52,3.28,11.57v29.6h8.4v-27.96c0-5.32,1.25-9.52,3.74-12.6,2.49-3.07,5.92-4.61,10.29-4.61,3.96,0,7.01,1.33,9.17,3.99,2.15,2.66,3.23,6.52,3.23,11.57v29.6h8.4v-30.11c0-7.78-1.83-13.52-5.48-17.21M404.92,69.15c-2.63,1.64-5.65,2.46-9.06,2.46s-6.43-.82-9.06-2.46c-2.63-1.64-4.66-3.93-6.09-6.86-1.43-2.94-2.15-6.25-2.15-9.93s.72-7,2.15-9.93c1.43-2.94,3.46-5.22,6.09-6.86,2.63-1.64,5.65-2.46,9.06-2.46s6.43.82,9.06,2.46c2.63,1.64,4.66,3.93,6.09,6.86,1.43,2.94,2.15,6.25,2.15,9.93s-.72,7-2.15,9.93c-1.43,2.94-3.47,5.22-6.09,6.86M382.39,75.7c3.93,2.25,8.42,3.38,13.47,3.38s9.54-1.13,13.47-3.38c3.93-2.25,6.98-5.39,9.17-9.42s3.28-8.67,3.28-13.93-1.09-9.9-3.28-13.93c-2.18-4.03-5.24-7.17-9.17-9.42-3.93-2.25-8.41-3.38-13.47-3.38s-9.54,1.13-13.47,3.38c-3.92,2.25-6.98,5.39-9.16,9.42-2.18,4.03-3.28,8.67-3.28,13.93s1.09,9.9,3.28,13.93c2.18,4.03,5.24,7.17,9.16,9.42M358.58,74.12c4.03-3.31,6.59-7.87,7.68-13.67h-8.4c-.75,3.48-2.42,6.21-5.02,8.19-2.59,1.98-5.8,2.97-9.63,2.97-4.98,0-9.03-1.79-12.14-5.38-3.11-3.58-4.66-8.24-4.66-13.98s1.55-10.28,4.66-13.83c3.11-3.55,7.15-5.33,12.14-5.33,3.69,0,6.83.99,9.42,2.97,2.6,1.98,4.3,4.64,5.12,7.99h8.5c-1.02-5.73-3.53-10.24-7.53-13.52-3.99-3.28-9.06-4.92-15.21-4.92-5.05,0-9.52,1.11-13.42,3.33-3.89,2.22-6.91,5.34-9.06,9.37-2.15,4.03-3.23,8.67-3.23,13.93s1.06,9.92,3.17,13.98c2.12,4.06,5.09,7.22,8.91,9.47,3.82,2.25,8.26,3.38,13.31,3.38,6.21,0,11.33-1.66,15.36-4.97M279.64,25.83h-15.36l20.28,52.95-1.33,3.48c-.75,1.78-1.54,2.97-2.36,3.58-.82.61-2.15.92-3.99.92h-7.99v12.19h14.03c2.66,0,4.83-.46,6.5-1.38,1.67-.92,3.06-2.29,4.15-4.1,1.09-1.81,2.25-4.32,3.48-7.53l23.35-60.12h-15.46l-12.49,37.79-12.8-37.79ZM248.1,78.47h14.44V6.78h-14.44v71.69ZM228.6,46h-23.86c.41-3.07,1.69-5.51,3.84-7.32,2.15-1.81,4.8-2.71,7.94-2.71s5.99.87,8.14,2.61c2.15,1.74,3.47,4.22,3.94,7.42M192.71,37.96c-2.22,4.06-3.33,8.82-3.33,14.29s1.14,10.12,3.43,14.18c2.29,4.06,5.56,7.19,9.83,9.37,4.27,2.18,9.34,3.28,15.21,3.28,4.51,0,8.5-.8,11.98-2.41,3.48-1.6,6.28-3.81,8.4-6.61,2.12-2.8,3.45-5.94,3.99-9.42h-14.24c-.61,2.46-1.89,4.32-3.84,5.58s-4.39,1.9-7.32,1.9c-3.69,0-6.59-1.09-8.71-3.28-2.12-2.19-3.35-5.19-3.69-9.01v-.41h38.2c.27-1.43.41-3.07.41-4.92-.07-5.12-1.25-9.58-3.53-13.36-2.29-3.79-5.46-6.72-9.52-8.81-4.06-2.08-8.76-3.12-14.08-3.12s-9.88,1.11-13.88,3.33c-3.99,2.22-7.1,5.36-9.32,9.42M188.93,25.83h-2.46c-3.89,0-7,.67-9.32,2-2.32,1.33-4.27,3.29-5.84,5.89l-1.33-7.89h-13.11v52.64h14.44v-25.81c0-4.23.96-7.58,2.87-10.04,1.91-2.46,4.92-3.69,9.01-3.69h5.74v-13.11Z"/><path class="cls-3" d="M623.81,93.88v-1.77h.99c.32,0,.58.07.78.22.2.15.29.36.29.63,0,.29-.1.52-.3.68-.2.16-.46.24-.76.24h-.99ZM624.85,91.21h-2.11v5.53h1.07v-1.97h.85l1.16,1.97h1.19l-1.31-2.18c.4-.11.72-.31.95-.58.23-.28.34-.62.34-1.02,0-.52-.19-.94-.58-1.26-.39-.32-.91-.49-1.55-.49M628.11,91.91c.34.62.51,1.3.51,2.06s-.17,1.44-.51,2.05c-.34.61-.81,1.08-1.42,1.43-.61.35-1.29.52-2.05.52s-1.42-.17-2.03-.51c-.61-.34-1.08-.81-1.42-1.42-.34-.61-.51-1.29-.51-2.05s.17-1.47.51-2.09c.34-.61.81-1.1,1.42-1.44.61-.35,1.28-.52,2.03-.52s1.44.17,2.05.52c.61.35,1.08.83,1.42,1.44M620.26,91.44c-.45.77-.67,1.62-.67,2.56s.22,1.76.67,2.51c.45.75,1.05,1.35,1.82,1.78s1.62.66,2.56.66,1.82-.22,2.58-.66c.77-.44,1.38-1.03,1.82-1.78.45-.75.67-1.6.67-2.54s-.22-1.79-.67-2.55-1.05-1.36-1.82-1.8c-.77-.44-1.63-.66-2.58-.66s-1.79.22-2.56.66c-.77.44-1.38,1.04-1.82,1.81"/></g></g></svg>